/* XPM */
static char *arch[] = {
/* columns rows colors chars-per-pixel */
"24 24 87 1 ",
"  c None",
". c black",
"X c #000203",
"o c #000204",
"O c #000304",
"+ c #000305",
"@ c #000406",
"# c #000507",
"$ c #01080C",
"% c #010A0F",
"& c #010C12",
"* c #020F16",
"= c #021018",
"- c #03131B",
"; c #03141C",
": c #02141D",
"> c #03141D",
", c #031620",
"< c #031722",
"1 c #031923",
"2 c #041822",
"3 c #031924",
"4 c #041A26",
"5 c #041B27",
"6 c #041C27",
"7 c #041D29",
"8 c #05202E",
"9 c #04212E",
"0 c #05212F",
"q c #052331",
"w c #062737",
"e c #062738",
"r c #072B3D",
"t c #072B3E",
"y c #072C3E",
"u c #083146",
"i c #08354B",
"p c #083850",
"a c #093850",
"s c #093C56",
"d c #0A3E58",
"f c #0A4663",
"g c #0B4867",
"h c #0C4E6F",
"j c #0C5275",
"k c #0E5980",
"l c #0E5E85",
"z c #0E5E86",
"x c #0E5F86",
"c c #0F6089",
"v c #0F618B",
"b c #0F638D",
"n c #106A96",
"m c #106A97",
"M c #106B99",
"N c #116C99",
"B c #116D9B",
"V c #116E9D",
"C c #11709F",
"Z c #1171A1",
"A c #1272A3",
"S c #137AAE",
"D c #137FB5",
"F c #1481B7",
"G c #158AC3",
"H c #1589C4",
"J c #168FCB",
"K c #1690CD",
"L c #1691CE",
"P c #1692CF",
"I c #1692D0",
"U c #1792D0",
"Y c #1793D0",
"T c #1693D1",
"R c #1793D1",
"E c #1793D2",
"W c #1794D2",
"Q c #1794D3",
"! c #1795D4",
"~ c #1795D5",
"^ c #1796D5",
"/ c #1797D6",
"( c #1797D8",
") c #1798D8",
"_ c #1798D9",
"` c #1799D9",
"' c #1899DB",
/* pixels */
"                        ",
"            .           ",
"            4           ",
"           OF.          ",
"           iW:          ",
"          OLIZ          ",
"          7II(,         ",
"          w)IIx         ",
"         $ yWI'3        ",
"         Cv4fIIx        ",
"        0)I^^II),       ",
"       .NIIIIIIIb       ",
"       0)IIIWIII^=      ",
"      .VIILw:h^IIm      ",
"      t^II2   j^II&     ",
"     .SIIV.   .GIIZ     ",
"     u^I^a     xLmM:    ",
"    .HII)=     s(v#.    ",
"    dWIWJ1     aLWI0    ",
"   OLLDe..     .OgLIx   ",
"   kN:.           OtJ6  ",
"  :*                #q. ",
"  $                   . ",
"                        "
};
